<svg aria-hidden="true" style="position: absolute; width: 0; height: 0; overflow: hidden;" version="1.1" xmlns="http://www.w3.org/2000/svg" xmlns:xlink="http://www.w3.org/1999/xlink">
<defs>
<symbol id="blok45-icon-like" viewBox="0 0 32 32">
<path d="M28.65 4.019c-3.613-3.038-9.194-2.581-12.65 0.938-3.456-3.519-9.037-3.981-12.65-0.938-4.7 3.956-4.013 10.406-0.663 13.825l10.963 11.169c0.625 0.637 1.463 0.994 2.35 0.994 0.894 0 1.725-0.35 2.35-0.988l10.963-11.169c3.344-3.419 4.044-9.869-0.663-13.831zM27.175 15.738l-10.963 11.169c-0.15 0.15-0.275 0.15-0.425 0l-10.963-11.169c-2.281-2.325-2.744-6.725 0.456-9.419 2.431-2.044 6.181-1.737 8.531 0.656l2.188 2.231 2.188-2.231c2.363-2.406 6.113-2.7 8.531-0.662 3.194 2.694 2.719 7.119 0.456 9.425z"></path>
</symbol>
<symbol id="blok45-icon-search" viewBox="0 0 32 32">
<path d="M23.831 14.367c0-5.581-4.524-10.105-10.105-10.105s-10.105 4.524-10.105 10.105 4.524 10.105 10.105 10.105c5.581 0 10.105-4.524 10.105-10.105zM21.988 25.011c-2.282 1.773-5.149 2.83-8.262 2.83-7.441 0-13.474-6.032-13.474-13.474s6.032-13.474 13.474-13.474c7.441 0 13.474 6.032 13.474 13.474 0 3.114-1.056 5.981-2.83 8.262l6.863 6.863-2.382 2.382-6.863-6.863z"></path>
</symbol>
<symbol id="blok45-icon-left" viewBox="0 0 32 32">
<path d="M12.586 27.414l-10-10c-0.781-0.781-0.781-2.047 0-2.828l10-10c0.781-0.781 2.047-0.781 2.828 0s0.781 2.047 0 2.828l-6.586 6.586h19.172c1.105 0 2 0.895 2 2s-0.895 2-2 2h-19.172l6.586 6.586c0.39 0.39 0.586 0.902 0.586 1.414s-0.195 1.024-0.586 1.414c-0.781 0.781-2.047 0.781-2.828 0z"></path>
</symbol>
<symbol id="blok45-icon-right" viewBox="0 0 32 32">
<path d="M19.414 27.414l10-10c0.781-0.781 0.781-2.047 0-2.828l-10-10c-0.781-0.781-2.047-0.781-2.828 0s-0.781 2.047 0 2.828l6.586 6.586h-19.172c-1.105 0-2 0.895-2 2s0.895 2 2 2h19.172l-6.586 6.586c-0.39 0.39-0.586 0.902-0.586 1.414s0.195 1.024 0.586 1.414c0.781 0.781 2.047 0.781 2.828 0z"></path>
</symbol>
<symbol id="blok45-icon-notify" viewBox="0 0 32 32">
<path d="M16 29.313c-1.5 0-2.688-1.188-2.688-2.625h5.313c0 1.552-1.163 2.625-2.625 2.625zM24 14.688v6.625l2.688 2.688v1.313h-21.375v-1.313l2.688-2.688v-6.625c0-4.125 2.188-7.5 6-8.438v-0.938c0-1.125 0.875-2 2-2s2 0.875 2 2v0.938c3.813 0.938 6 4.375 6 8.438zM26.625 14c-0.188-3.563-2-6.625-4.688-8.563l1.875-1.875c3.188 2.438 5.313 6.188 5.5 10.438h-2.688zM10.125 5.438c-2.75 1.938-4.563 5-4.75 8.563h-2.688c0.188-4.25 2.313-8 5.5-10.438z"></path>
</symbol>
<symbol id="blok45-icon-loop" viewBox="0 0 32 32">
<path d="M27.802 5.197c-2.925-3.194-7.13-5.197-11.803-5.197-8.837 0-16 7.163-16 16h3c0-7.18 5.82-13 13-13 3.844 0 7.298 1.669 9.678 4.322l-4.678 4.678h11v-11l-4.198 4.197zM29 16c0 7.18-5.82 13-13 13-3.844 0-7.298-1.669-9.678-4.322l4.678-4.678h-11v11l4.197-4.197c2.925 3.194 7.13 5.197 11.803 5.197 8.837 0 16-7.163 16-16h-3z"></path>
</symbol>
<symbol id="blok45-icon-reply" viewBox="0 0 32 32">
<path d="M30.4 26.696s-3.56-15.571-17.6-15.571v-6.373l-11.2 10.512 11.2 10.704v-6.971c7.621 0 13.626 0.672 17.6 7.696z"></path>
</symbol>
<symbol id="blok45-icon-shuffle" viewBox="0 0 32 32">
<path d="M24 22h-3.172l-5-5 5-5h3.172v5l7-7-7-7v5h-4c-0.53 0-1.039 0.211-1.414 0.586l-5.586 5.586-5.586-5.586c-0.375-0.375-0.884-0.586-1.414-0.586h-6v4h5.172l5 5-5 5h-5.172v4h6c0.53 0 1.039-0.211 1.414-0.586l5.586-5.586 5.586 5.586c0.375 0.375 0.884 0.586 1.414 0.586h4v5l7-7-7-7v5z"></path>
</symbol>
<symbol id="blok45-icon-external" viewBox="0 0 32 32">
<path d="M25.333 18.667v6.667c0 1.473-1.194 2.667-2.667 2.667h-16c-1.473 0-2.667-1.194-2.667-2.667v-16c0-1.473 1.194-2.667 2.667-2.667h6.667v2.667h-6.667v16h16v-6.667h2.667zM25.329 8.552l-9.724 9.724-1.886-1.886 9.724-9.724h-6.114v-2.667h10.667v10.667h-2.667v-6.114z"></path>
</symbol>
</defs>
</svg>
